# xmcd CD database file
#
# Track frame offsets:
#	182
#	11440
#	27130
#	43620
#	57017
#	68405
#	79215
#	93082
#	106202
#	122182
#	141827
#
# Disc length: 2244 seconds
#
# Revision: 0
# Processed by: cddbd v1.5PL3 Copyright (c) Steve Scherf et al.
# Submitted via: CDex 1.50
#
DISCID=8008c20b
DTITLE=Nat King Cole - At The Sands
DYEAR=1900
DGENRE=Jazz
TTITLE0=Ballerina
TTITLE1=Funny (Not Much)
TTITLE2=The Continental
TTITLE3=I Wisch You Love
TTITLE4=You Leave Me Breathless
TTITLE5=Thou Swell
TTITLE6=My Kinda Love
TTITLE7=The Surrey With The Fringe On Top
TTITLE8=Where Or When
TTITLE9=Miss Otis Regrets
TTITLE10=Joe Turner Blues
EXTD=
EXTT0=
EXTT1=
EXTT2=
EXTT3=
EXTT4=
EXTT5=
EXTT6=
EXTT7=
EXTT8=
EXTT9=
EXTT10=
PLAYORDER=
